:FULLY-SPECIFIED
:FORCE-ALL-JOINTS-BE-3DOF
:DEGREES
442
root 3.7935 16.0196 -8.92744 2.28658 -0.946438 -5.95271
lfemur -28.451 1.85946 -7.75554
ltibia 52.8703 -0 0
lfoot -22.4061 2.99796 0.0660531
ltoes -1.68017 0 0
rfemur -41.4696 4.05968 5.22972
rtibia 53.1008 -0 0
rfoot 6.10903 3.94281 0.0425132
rtoes -14.7395 0 0
lowerback 6.42622 1.79488 1.99195
upperback 1.66572 2.49543 -0.286414
thorax -1.70828 1.24314 -1.59051
lowerneck -7.30995 0.655483 6.4783
upperneck 5.42165 0.323587 -1.29474
head 3.20526 0.23608 -1.67054
lclavicle -2.18984e-14 7.09347e-15 2.16748e-31
lhumerus -44.4792 -25.403 100.643
lradius 50.6044 -0 0
lwrist 10.5359 0 0
lhand -13.823 -0.302724 0.0648643
lfingers 7.12502 -0 0
lthumb 12.2675 28.8887 -0.0722763
rclavicle -2.18984e-14 7.09347e-15 2.16748e-31
rhumerus -45.0723 12.1675 -90.2833
rradius 75.0493 -0 0
rwrist 15.1147 0 0
rhand -23.8075 -20.5571 0.384325
rfingers 7.12502 -0 0
rthumb 2.64433 -50.0828 0.453976
443
root 3.81985 16.0275 -8.8733 2.25057 0.601941 -5.93609
lfemur -28.4485 1.49762 -7.99727
ltibia 52.7639 -0 0
lfoot -22.4465 2.81861 0.0685228
ltoes -1.36899 0 0
rfemur -41.7682 4.09689 5.29497
rtibia 53.4275 -0 0
rfoot 6.14436 4.07483 0.0441021
rtoes -14.7604 0 0
lowerback 6.41825 1.75735 1.93372
upperback 1.64428 2.4424 -0.258675
thorax -1.72904 1.21673 -1.52512
lowerneck -7.35366 0.476549 6.32958
upperneck 5.49093 0.0926037 -1.23423
head 3.22838 0.121214 -1.64061
lclavicle -2.17235e-14 6.95746e-15 2.24845e-31
lhumerus -44.5306 -25.5501 100.9
lradius 50.7022 -0 0
lwrist 10.4274 0 0
lhand -13.4396 -0.284185 0.0672972
lfingers 7.12502 -0 0
lthumb 12.6356 28.8672 -0.0749864
rclavicle -2.17235e-14 6.95746e-15 2.24845e-31
rhumerus -44.9639 12.6521 -90.3815
rradius 75.3575 -0 0
rwrist 15.273 0 0
rhand -23.3865 -20.4571 0.398756
rfingers 7.12502 -0 0
rthumb 3.05004 -49.9602 0.471019
444
root 3.8462 16.0353 -8.81916 2.21499 2.15033 -5.92043
lfemur -28.4444 1.13579 -8.23898
ltibia 52.6575 -0 0
lfoot -22.487 2.63926 0.0708661
ltoes -1.05781 0 0
rfemur -42.0667 4.13444 5.36003
rtibia 53.7543 -0 0
rfoot 6.17971 4.20685 0.0456096
rtoes -14.7812 0 0
lowerback 6.41032 1.7198 1.8755
upperback 1.62281 2.38939 -0.230918
thorax -1.74982 1.19035 -1.45972
lowerneck -7.39691 0.297503 6.181
upperneck 5.55997 -0.138453 -1.17401
head 3.25143 0.00633562 -1.61073
lclavicle -2.15485e-14 6.82145e-15 2.32527e-31
lhumerus -44.5828 -25.697 101.158
lradius 50.8 -0 0
lwrist 10.3188 0 0
lhand -13.0562 -0.26563 0.069606
lfingers 7.12502 -0 0
lthumb 13.0038 28.8457 -0.0775582
rclavicle -2.15485e-14 6.82145e-15 2.32527e-31
rhumerus -44.856 13.1369 -90.479
rradius 75.6657 -0 0
rwrist 15.4312 0 0
rhand -22.9654 -20.357 0.412452
rfingers 7.12502 -0 0
rthumb 3.45579 -49.8375 0.487194
445
root 3.87255 16.0431 -8.76501 2.17979 3.69873 -5.90571
lfemur -28.4389 0.773982 -8.4807
ltibia 52.5511 -0 0
lfoot -22.5274 2.45991 0.0730829
ltoes -0.746635 0 0
rfemur -42.3653 4.17233 5.42489
rtibia 54.081 -0 0
rfoot 6.21505 4.33887 0.0470357
rtoes -14.8021 0 0
lowerback 6.40243 1.68225 1.81729
upperback 1.60132 2.33638 -0.203141
thorax -1.77064 1.164 -1.39431
lowerneck -7.43969 0.118345 6.03255
upperneck 5.62877 -0.369581 -1.11406
head 3.27442 -0.108554 -1.58089
lclavicle -2.13736e-14 6.68544e-15 2.39793e-31
lhumerus -44.6358 -25.8436 101.416
lradius 50.8977 -0 0
lwrist 10.2103 0 0
lhand -12.6728 -0.247059 0.0717906
lfingers 7.12502 -0 0
lthumb 13.3719 28.8241 -0.0799915
rclavicle -2.13736e-14 6.68544e-15 2.39793e-31
rhumerus -44.7488 13.6219 -90.5757
rradius 75.9739 -0 0
rwrist 15.5894 0 0
rhand -22.5444 -20.2568 0.425412
rfingers 7.12502 -0 0
rthumb 3.86158 -49.7147 0.5025
446
root 3.89891 16.051 -8.71087 2.14491 5.24714 -5.89192
lfemur -28.4318 0.4122 -8.72243
ltibia 52.4447 -0 0
lfoot -22.5678 2.28056 0.0751731
ltoes -0.435456 0 0
rfemur -42.6638 4.21055 5.48956
rtibia 54.4077 -0 0
rfoot 6.2504 4.4709 0.0483804
rtoes -14.8229 0 0
lowerback 6.39458 1.6447 1.75909
upperback 1.5798 2.28338 -0.175346
thorax -1.79149 1.13766 -1.32889
lowerneck -7.48201 -0.0609235 5.88424
upperneck 5.69733 -0.600781 -1.05439
head 3.29735 -0.223456 -1.5511
lclavicle -2.11987e-14 6.54943e-15 2.46645e-31
lhumerus -44.6896 -25.9901 101.675
lradius 50.9955 -0 0
lwrist 10.1018 0 0
lhand -12.2895 -0.228475 0.073851
lfingers 7.12502 -0 0
lthumb 13.7401 28.8026 -0.0822864
rclavicle -2.11987e-14 6.54943e-15 2.46645e-31
rhumerus -44.6423 14.107 -90.6718
rradius 76.2821 -0 0
rwrist 15.7476 0 0
rhand -22.1233 -20.1565 0.437636
rfingers 7.12502 -0 0
rthumb 4.2674 -49.5918 0.516935
447
root 3.92526 16.0588 -8.65673 2.1103 6.79555 -5.87904
lfemur -28.4232 0.0504501 -8.9642
ltibia 52.3382 -0 0
lfoot -22.6082 2.1012 0.0771368
ltoes -0.124277 0 0
rfemur -42.9622 4.24911 5.55403
rtibia 54.7344 -0 0
rfoot 6.28575 4.60292 0.0496435
rtoes -14.8437 0 0
lowerback 6.38676 1.60713 1.70089
upperback 1.55825 2.23039 -0.147532
thorax -1.81236 1.11135 -1.26346
lowerneck -7.52386 -0.240301 5.73606
upperneck 5.76565 -0.832053 -0.994995
head 3.32022 -0.33837 -1.52136
lclavicle -2.10238e-14 6.41342e-15 2.53081e-31
lhumerus -44.7442 -26.1363 101.934
lradius 51.0933 -0 0
lwrist 9.99323 0 0
lhand -11.9061 -0.209877 0.0757869
lfingers 7.12502 -0 0
lthumb 14.1082 28.781 -0.0844427
rclavicle -2.10238e-14 6.41342e-15 2.53081e-31
rhumerus -44.5363 14.5923 -90.767
rradius 76.5903 -0 0
rwrist 15.9058 0 0
rhand -21.7022 -20.0562 0.449123
rfingers 7.12502 -0 0
rthumb 4.67325 -49.4688 0.5305
448
root 3.95161 16.0666 -8.60258 2.07592 8.34397 -5.86705
lfemur -28.4131 -0.31126 -9.20602
ltibia 52.2318 -0 0
lfoot -22.6487 1.92185 0.0789738
ltoes 0.186902 -0 0
rfemur -43.2607 4.28801 5.6183
rtibia 55.0612 -0 0
rfoot 6.3211 4.73494 0.0508253
rtoes -14.8646 0 0
lowerback 6.37899 1.56955 1.64269
upperback 1.53669 2.17742 -0.119699
thorax -1.83327 1.08507 -1.19802
lowerneck -7.56525 -0.419785 5.58801
upperneck 5.83373 -1.06339 -0.935869
head 3.34304 -0.453296 -1.49166
lclavicle -2.08489e-14 6.27741e-15 2.59102e-31
lhumerus -44.7996 -26.2823 102.193
lradius 51.1911 -0 0
lwrist 9.88469 0 0
lhand -11.5227 -0.191266 0.0775983
lfingers 7.12502 -0 0
lthumb 14.4764 28.7594 -0.0864603
rclavicle -2.08489e-14 6.27741e-15 2.59102e-31
rhumerus -44.4309 15.0777 -90.8616
rradius 76.8985 -0 0
rwrist 16.064 0 0
rhand -21.281 -19.9557 0.459871
rfingers 7.12502 -0 0
rthumb 5.07913 -49.3457 0.543193
449
root 3.97796 16.0745 -8.54844 2.04173 9.8924 -5.85596
lfemur -28.4014 -0.672924 -9.44793
ltibia 52.1254 -0 0
lfoot -22.6891 1.74249 0.0806842
ltoes 0.49808 -0 0
rfemur -43.5591 4.32723 5.68237
rtibia 55.3879 -0 0
rfoot 6.35646 4.86697 0.0519255
rtoes -14.8854 0 0
lowerback 6.37125 1.53197 1.5845
upperback 1.51509 2.12445 -0.091847
thorax -1.85421 1.05881 -1.13257
lowerneck -7.60618 -0.599376 5.44009
upperneck 5.90159 -1.29481 -0.877013
head 3.36579 -0.568234 -1.462
lclavicle -2.06739e-14 6.1414e-15 2.64707e-31
lhumerus -44.8558 -26.428 102.453
lradius 51.2888 -0 0
lwrist 9.77616 0 0
lhand -11.1393 -0.172644 0.0792851
lfingers 7.12502 -0 0
lthumb 14.8446 28.7378 -0.0883391
rclavicle -2.06739e-14 6.1414e-15 2.64707e-31
rhumerus -44.3262 15.5634 -90.9555
rradius 77.2067 -0 0
rwrist 16.2222 0 0
rhand -20.8599 -19.8552 0.469881
rfingers 7.12502 -0 0
rthumb 5.48503 -49.2225 0.555013
450
root 4.00431 16.0823 -8.4943 2.00766 11.4408 -5.84575
lfemur -28.3882 -1.03454 -9.68993
ltibia 52.019 -0 0
lfoot -22.7296 1.56313 0.0822681
ltoes 0.809259 -0 0
rfemur -43.8574 4.36679 5.74624
rtibia 55.7146 -0 0
rfoot 6.39182 4.99899 0.0529443
rtoes -14.9063 0 0
lowerback 6.36355 1.49438 1.52632
upperback 1.49347 2.0715 -0.0639759
thorax -1.87517 1.03257 -1.06712
lowerneck -7.64664 -0.779073 5.29228
upperneck 5.96921 -1.52629 -0.818426
head 3.38849 -0.683183 -1.4324
lclavicle -2.0499e-14 6.00539e-15 2.69897e-31
lhumerus -44.9129 -26.5735 102.714
lradius 51.3866 -0 0
lwrist 9.66762 0 0
lhand -10.7559 -0.154011 0.0808473
lfingers 7.12502 -0 0
lthumb 15.2127 28.7162 -0.090079
rclavicle -2.0499e-14 6.00539e-15 2.69897e-31
rhumerus -44.222 16.0492 -91.0487
rradius 77.5149 -0 0
rwrist 16.3804 0 0
rhand -20.4387 -19.7546 0.479151
rfingers 7.12502 -0 0
rthumb 5.89097 -49.0993 0.565961
451
root 4.03067 16.0902 -8.44015 1.97368 12.9893 -5.83643
lfemur -28.3735 -1.39609 -9.93204
ltibia 51.9126 -0 0
lfoot -22.7701 1.38377 0.0837252
ltoes 1.12044 -0 0
rfemur -44.1558 4.40668 5.8099
rtibia 56.0413 -0 0
rfoot 6.42718 5.13102 0.0538816
rtoes -14.9271 0 0
lowerback 6.35589 1.45679 1.46815
upperback 1.47183 2.01855 -0.0360857
thorax -1.89617 1.00636 -1.00165
lowerneck -7.68665 -0.958872 5.1446
upperneck 6.0366 -1.75784 -0.760105
head 3.41112 -0.798144 -1.40283
lclavicle -2.03241e-14 5.86938e-15 2.74673e-31
lhumerus -44.9707 -26.7188 102.975
lradius 51.4844 -0 0
lwrist 9.55908 0 0
lhand -10.3725 -0.135368 0.0822848
lfingers 7.12502 -0 0
lthumb 15.5809 28.6945 -0.09168
rclavicle -2.03241e-14 5.86938e-15 2.74673e-31
rhumerus -44.1183 16.5351 -91.1411
rradius 77.8231 -0 0
rwrist 16.5386 0 0
rhand -20.0175 -19.6539 0.487682
rfingers 7.12502 -0 0
rthumb 6.29692 -48.9759 0.576035
452
root 4.05702 16.098 -8.38601 1.93973 14.5377 -5.82799
lfemur -28.3573 -1.75757 -10.1743
ltibia 51.8062 -0 0
lfoot -22.8105 1.20441 0.0850557
ltoes 1.43162 -0 0
rfemur -44.4541 4.4469 5.87336
rtibia 56.3681 -0 0
rfoot 6.46255 5.26305 0.0547374
rtoes -14.9479 0 0
lowerback 6.34827 1.41918 1.40998
upperback 1.45016 1.96562 -0.00817642
thorax -1.91719 0.980171 -0.936176
lowerneck -7.72619 -1.13877 4.99703
upperneck 6.10377 -1.98946 -0.70205
head 3.4337 -0.913117 -1.37331
lclavicle -2.01492e-14 5.73337e-15 2.79032e-31
lhumerus -45.0294 -26.8639 103.236
lradius 51.5822 -0 0
lwrist 9.45054 0 0
lhand -9.98908 -0.116716 0.0835975
lfingers 7.12502 -0 0
lthumb 15.949 28.6729 -0.093142
rclavicle -2.01492e-14 5.73337e-15 2.79032e-31
rhumerus -44.0152 17.0213 -91.2329
rradius 78.1313 -0 0
rwrist 16.6968 0 0
rhand -19.5963 -19.5532 0.495473
rfingers 7.12502 -0 0
rthumb 6.7029 -48.8525 0.585234
453
root 4.08337 16.1058 -8.33187 1.90576 16.0862 -5.82044
lfemur -28.3395 -2.11899 -10.4167
ltibia 51.6997 -0 0
lfoot -22.851 1.02505 0.0862596
ltoes 1.7428 -0 0
rfemur -44.7524 4.48745 5.93661
rtibia 56.6948 -0 0
rfoot 6.49791 5.39507 0.0555117
rtoes -14.9688 0 0
lowerback 6.34068 1.38157 1.35181
upperback 1.42847 1.91269 0.019752
thorax -1.93825 0.954006 -0.870692
lowerneck -7.76527 -1.31878 4.84958
upperneck 6.17071 -2.22114 -0.644257
head 3.45622 -1.0281 -1.34384
lclavicle -1.99743e-14 5.59736e-15 2.82977e-31
lhumerus -45.0888 -27.0087 103.498
lradius 51.6799 -0 0
lwrist 9.342 0 0
lhand -9.60568 -0.0980552 0.0847853
lfingers 7.12502 -0 0
lthumb 16.3172 28.6513 -0.094465
rclavicle -1.99743e-14 5.59736e-15 2.82977e-31
rhumerus -43.9127 17.5075 -91.324
rradius 78.4394 -0 0
rwrist 16.855 0 0
rhand -19.1751 -19.4524 0.502523
rfingers 7.12502 -0 0
rthumb 7.10889 -48.729 0.59356
